<svg xmlns="http://www.w3.org/2000/svg" width="451.356" height="75.989" viewBox="58.919 358.337 451.356 75.989" enable-background="new 58.919 358.337 451.356 75.989"><title>protonvpn-white-transparent</title><path fill="#fff" d="M128.4 366.82c0-4.68-3.8-8.48-8.5-8.48s-8.5 3.8-8.5 8.48c0 0 0 0 0 .27L74.43 379c-2.64-3.88-7.92-4.9-11.8-2.25-3.87 2.63-4.88 7.9-2.24 11.8 1.6 2.37 4.3 3.76 7.2 3.7.86 0 1.74-.16 2.57-.45l24.3 30.68c-1.84 4.32.17 9.3 4.48 11.14 4.3 1.84 9.3-.17 11.13-4.48 1.44-3.4.52-7.36-2.3-9.77l12.92-44.14c4.36-.4 7.7-4.07 7.67-8.45zm-26.26 50.36c-1.3.02-2.6.34-3.76.94l-23.73-30.04c.66-1.08 1.07-2.28 1.2-3.53l37.78-12.06c.4.43.83.83 1.3 1.2l-12.75 43.47h-.04zm80.88-43.63c3.68 2.95 5.7 7.52 5.37 12.24.37 4.94-1.7 9.8-5.6 12.9-4.4 3.03-9.7 4.52-15.03 4.24h-6.6v19.45h-7.22v-52.96h13.9c5.36-.33 10.7 1.1 15.16 4.1zm-5.74 21.1c2.47-2.23 3.72-5.52 3.34-8.83.3-3.12-.96-6.18-3.34-8.22-2.84-1.86-6.2-2.74-9.58-2.52h-6.53v22.05h6.38c3.42.22 6.83-.65 9.73-2.48zm40.92-13.22l-1.3 6.9c-1.16-.28-2.35-.44-3.54-.44-2.35-.1-4.6.93-6.08 2.76-1.9 2.54-3.18 5.48-3.75 8.6v23.13h-6.9v-40.53h6.14l.68 8.22c.82-2.6 2.3-4.9 4.32-6.73 1.74-1.5 3.96-2.36 6.27-2.4 1.4-.03 2.8.12 4.17.45zm34.25 5.22c3.37 4.44 5.05 9.94 4.73 15.5.1 3.87-.62 7.7-2.14 11.27-1.3 3.07-3.46 5.68-6.23 7.5-2.87 1.84-6.25 2.77-9.67 2.68-5.07.27-9.97-1.83-13.3-5.67-3.45-4.5-5.14-10.1-4.76-15.77-.1-3.87.63-7.7 2.14-11.27 1.3-3.08 3.47-5.7 6.24-7.53 2.92-1.83 6.32-2.76 9.77-2.66 5.1-.2 10 2 13.26 5.94zm-23.8 15.5c0 10.3 3.48 15.44 10.43 15.44 6.96 0 10.46-5.16 10.48-15.45 0-10.3-3.45-15.44-10.36-15.44-6.9 0-10.43 5.16-10.55 15.45zm60.5 18.4c-2.68 1.86-5.85 2.83-9.1 2.8-2.97.16-5.88-.9-8.03-2.98-2.06-2.36-3.1-5.44-2.9-8.56v-24.43h-6.87v-5.48h7.06v-9.13l7.08-.87v9.98H286l-.6 5.48h-9.03v24.15c-.12 1.63.27 3.23 1.13 4.6.96 1.04 2.35 1.57 3.75 1.43 1.9-.1 3.74-.65 5.37-1.62l2.52 4.67zm34.75-33.9c3.38 4.44 5.06 9.94 4.74 15.5.1 3.87-.62 7.7-2.14 11.27-1.3 3.07-3.46 5.68-6.23 7.5-2.9 1.84-6.27 2.76-9.7 2.68-5.06.27-9.97-1.83-13.28-5.67-3.48-4.5-5.18-10.1-4.8-15.77-.1-3.87.64-7.7 2.15-11.27 1.3-3.08 3.46-5.7 6.23-7.53 2.9-1.83 6.3-2.76 9.76-2.66 5.1-.2 10 2 13.25 5.94zm-23.76 15.5c0 10.3 3.48 15.44 10.44 15.44 6.96 0 10.44-5.16 10.44-15.45 0-10.3-3.45-15.44-10.36-15.44s-10.42 5.16-10.52 15.45zM368 384.28c2.18 2.5 3.3 5.77 3.1 9.1v29.05h-6.86v-28.08c.2-2.16-.36-4.32-1.6-6.1-1.27-1.24-3-1.88-4.78-1.75-2.05-.03-4.04.6-5.67 1.84-1.88 1.46-3.44 3.26-4.64 5.3v28.72h-7.25v-40.48h6.1l.6 6c1.36-2.07 3.2-3.8 5.33-5.06 2.13-1.23 4.56-1.86 7.02-1.84 3.22-.2 6.36 1.02 8.64 3.3zm52.34-14.83l-16.9 52.95h-7.84l-17.05-52.95h7.85l13.3 45.06 13.28-45.04h7.36zm37.3 4.1c3.67 2.95 5.7 7.52 5.36 12.24.4 4.94-1.7 9.8-5.6 12.9-4.4 3.03-9.68 4.52-15.02 4.24h-6.68v19.45h-7.32v-52.96h13.93c5.44-.36 10.8 1.08 15.34 4.1zm-5.76 21.1c2.48-2.23 3.73-5.52 3.35-8.83.28-3.12-.96-6.18-3.35-8.22-2.83-1.86-6.2-2.74-9.57-2.52h-6.5v22.05h6.37c3.42.22 6.82-.65 9.72-2.48zm58.36 27.75h-9.77l-21.5-45.06c.3 3.53.52 6.8.7 9.8.18 3 .26 6.63.26 10.9v24.28h-6.8v-52.87h9.54l21.75 45.06c-.15-1.3-.35-3.63-.6-6.96-.26-3.33-.38-6.4-.38-9.16v-28.92h6.83l-.03 52.95z"/></svg>